<svg id="visual" viewBox="0 0 900 600" width="900" height="600" xmlns="http://www.w3.org/2000/svg" xmlns:xlink="http://www.w3.org/1999/xlink" version="1.1"><g stroke-width="1" stroke-linejoin="bevel"><path d="M448 322.9L520 292.1L458 253.1Z" fill="#006b6d" stroke="#006b6d"></path><path d="M448 322.9L520 364.9L520 292.1Z" fill="#02424f" stroke="#02424f"></path><path d="M448 322.9L462 409.6L520 364.9Z" fill="#00101c" stroke="#00101c"></path><path d="M458 253.1L362 237.1L448 322.9Z" fill="#004f5b" stroke="#004f5b"></path><path d="M448 322.9L368 372.9L462 409.6Z" fill="#02424f" stroke="#02424f"></path><path d="M362 237.1L368 372.9L448 322.9Z" fill="#02424f" stroke="#02424f"></path><path d="M458 253.1L361 209.4L362 237.1Z" fill="#007872" stroke="#007872"></path><path d="M664 284.1L592 202.4L520 292.1Z" fill="#061c29" stroke="#061c29"></path><path d="M520 292.1L592 202.4L458 253.1Z" fill="#062836" stroke="#062836"></path><path d="M458 253.1L419 151.4L361 209.4Z" fill="#008674" stroke="#008674"></path><path d="M592 202.4L506 145.4L458 253.1Z" fill="#008674" stroke="#008674"></path><path d="M506 145.4L419 151.4L458 253.1Z" fill="#007872" stroke="#007872"></path><path d="M448 484.3L506 461.6L462 409.6Z" fill="#007872" stroke="#007872"></path><path d="M462 409.6L506 461.6L520 364.9Z" fill="#02424f" stroke="#02424f"></path><path d="M520 364.9L660 313.9L520 292.1Z" fill="#02424f" stroke="#02424f"></path><path d="M506 461.6L608 419.6L520 364.9Z" fill="#009473" stroke="#009473"></path><path d="M608 419.6L660 313.9L520 364.9Z" fill="#004f5b" stroke="#004f5b"></path><path d="M506 145.4L419 115.7L419 151.4Z" fill="#005d65" stroke="#005d65"></path><path d="M419 151.4L375 103.7L361 209.4Z" fill="#007872" stroke="#007872"></path><path d="M660 313.9L664 284.1L520 292.1Z" fill="#062836" stroke="#062836"></path><path d="M361 209.4L286 271.1L362 237.1Z" fill="#007872" stroke="#007872"></path><path d="M362 237.1L286 271.1L368 372.9Z" fill="#009473" stroke="#009473"></path><path d="M212 204.4L286 271.1L231 150.4Z" fill="#006b6d" stroke="#006b6d"></path><path d="M368 372.9L448 484.3L462 409.6Z" fill="#062836" stroke="#062836"></path><path d="M322 425.6L448 484.3L368 372.9Z" fill="#062836" stroke="#062836"></path><path d="M506 461.6L539 478.3L608 419.6Z" fill="#005d65" stroke="#005d65"></path><path d="M448 484.3L539 478.3L506 461.6Z" fill="#006b6d" stroke="#006b6d"></path><path d="M257 335.9L322 425.6L368 372.9Z" fill="#053543" stroke="#053543"></path><path d="M419 115.7L375 103.7L419 151.4Z" fill="#009473" stroke="#009473"></path><path d="M286 271.1L257 335.9L368 372.9Z" fill="#02424f" stroke="#02424f"></path><path d="M734 321.9L707 220.1L664 284.1Z" fill="#009473" stroke="#009473"></path><path d="M664 284.1L707 220.1L592 202.4Z" fill="#007872" stroke="#007872"></path><path d="M592 202.4L553 58.7L506 145.4Z" fill="#02424f" stroke="#02424f"></path><path d="M734 321.9L664 284.1L660 313.9Z" fill="#061c29" stroke="#061c29"></path><path d="M629 47.7L553 58.7L592 202.4Z" fill="#02424f" stroke="#02424f"></path><path d="M506 145.4L553 58.7L419 115.7Z" fill="#062836" stroke="#062836"></path><path d="M419 115.7L436 0L375 103.7Z" fill="#007872" stroke="#007872"></path><path d="M298 507.3L338 495.3L322 425.6Z" fill="#00101c" stroke="#00101c"></path><path d="M322 425.6L338 495.3L448 484.3Z" fill="#007872" stroke="#007872"></path><path d="M568 600L601 526.3L539 478.3Z" fill="#062836" stroke="#062836"></path><path d="M257 335.9L257 422.6L322 425.6Z" fill="#007872" stroke="#007872"></path><path d="M697 428.6L660 313.9L608 419.6Z" fill="#00101c" stroke="#00101c"></path><path d="M697 428.6L734 321.9L660 313.9Z" fill="#009473" stroke="#009473"></path><path d="M387 0L299 103.7L375 103.7Z" fill="#004f5b" stroke="#004f5b"></path><path d="M375 103.7L299 103.7L361 209.4Z" fill="#062836" stroke="#062836"></path><path d="M147 286.1L185 343.9L257 335.9Z" fill="#004f5b" stroke="#004f5b"></path><path d="M601 526.3L697 428.6L608 419.6Z" fill="#02424f" stroke="#02424f"></path><path d="M461 600L539 478.3L448 484.3Z" fill="#009473" stroke="#009473"></path><path d="M539 478.3L601 526.3L608 419.6Z" fill="#009473" stroke="#009473"></path><path d="M816 175.4L721 160.4L707 220.1Z" fill="#004f5b" stroke="#004f5b"></path><path d="M707 220.1L721 160.4L592 202.4Z" fill="#00101c" stroke="#00101c"></path><path d="M231 150.4L286 271.1L361 209.4Z" fill="#009473" stroke="#009473"></path><path d="M257 335.9L211 389.6L257 422.6Z" fill="#00101c" stroke="#00101c"></path><path d="M257 422.6L298 507.3L322 425.6Z" fill="#005d65" stroke="#005d65"></path><path d="M375 600L461 600L448 484.3Z" fill="#062836" stroke="#062836"></path><path d="M185 343.9L211 389.6L257 335.9Z" fill="#062836" stroke="#062836"></path><path d="M155 523.3L239 600L298 507.3Z" fill="#00101c" stroke="#00101c"></path><path d="M299 103.7L231 150.4L361 209.4Z" fill="#007872" stroke="#007872"></path><path d="M721 160.4L629 47.7L592 202.4Z" fill="#00101c" stroke="#00101c"></path><path d="M520 0L436 0L553 58.7Z" fill="#006b6d" stroke="#006b6d"></path><path d="M553 58.7L436 0L419 115.7Z" fill="#02424f" stroke="#02424f"></path><path d="M299 103.7L217 47.7L231 150.4Z" fill="#02424f" stroke="#02424f"></path><path d="M629 47.7L520 0L553 58.7Z" fill="#053543" stroke="#053543"></path><path d="M147 286.1L257 335.9L286 271.1Z" fill="#00101c" stroke="#00101c"></path><path d="M436 0L387 0L375 103.7Z" fill="#009473" stroke="#009473"></path><path d="M375 600L448 484.3L338 495.3Z" fill="#02424f" stroke="#02424f"></path><path d="M461 600L568 600L539 478.3Z" fill="#062836" stroke="#062836"></path><path d="M601 526.3L698 542.3L697 428.6Z" fill="#007872" stroke="#007872"></path><path d="M721 160.4L722 78.7L629 47.7Z" fill="#02424f" stroke="#02424f"></path><path d="M629 47.7L664 0L520 0Z" fill="#061c29" stroke="#061c29"></path><path d="M802 95.7L722 78.7L721 160.4Z" fill="#062836" stroke="#062836"></path><path d="M298 507.3L375 600L338 495.3Z" fill="#053543" stroke="#053543"></path><path d="M697 428.6L801 332.9L734 321.9Z" fill="#005d65" stroke="#005d65"></path><path d="M734 321.9L819 268.1L707 220.1Z" fill="#009473" stroke="#009473"></path><path d="M837 410.6L801 332.9L697 428.6Z" fill="#004f5b" stroke="#004f5b"></path><path d="M117 250.1L147 286.1L212 204.4Z" fill="#008674" stroke="#008674"></path><path d="M212 204.4L147 286.1L286 271.1Z" fill="#007872" stroke="#007872"></path><path d="M155 523.3L257 422.6L211 389.6Z" fill="#009473" stroke="#009473"></path><path d="M568 600L598 600L601 526.3Z" fill="#005d65" stroke="#005d65"></path><path d="M598 600L698 542.3L601 526.3Z" fill="#062836" stroke="#062836"></path><path d="M801 332.9L819 268.1L734 321.9Z" fill="#007872" stroke="#007872"></path><path d="M722 78.7L664 0L629 47.7Z" fill="#061c29" stroke="#061c29"></path><path d="M256 0L217 47.7L299 103.7Z" fill="#009473" stroke="#009473"></path><path d="M55 156.4L117 250.1L212 204.4Z" fill="#053543" stroke="#053543"></path><path d="M819 268.1L816 175.4L707 220.1Z" fill="#006b6d" stroke="#006b6d"></path><path d="M722 78.7L749 0L664 0Z" fill="#00101c" stroke="#00101c"></path><path d="M94 93.7L212 204.4L231 150.4Z" fill="#02424f" stroke="#02424f"></path><path d="M155 523.3L211 389.6L91 433.6Z" fill="#006b6d" stroke="#006b6d"></path><path d="M387 0L256 0L299 103.7Z" fill="#00101c" stroke="#00101c"></path><path d="M801 511.3L837 410.6L697 428.6Z" fill="#00101c" stroke="#00101c"></path><path d="M900 333.9L900 279.1L819 268.1Z" fill="#007872" stroke="#007872"></path><path d="M819 268.1L900 165.4L816 175.4Z" fill="#02424f" stroke="#02424f"></path><path d="M816 175.4L802 95.7L721 160.4Z" fill="#005d65" stroke="#005d65"></path><path d="M598 600L711 600L698 542.3Z" fill="#006b6d" stroke="#006b6d"></path><path d="M698 542.3L801 511.3L697 428.6Z" fill="#061c29" stroke="#061c29"></path><path d="M155 523.3L298 507.3L257 422.6Z" fill="#009473" stroke="#009473"></path><path d="M298 507.3L239 600L375 600Z" fill="#02424f" stroke="#02424f"></path><path d="M211 389.6L185 343.9L91 433.6Z" fill="#00101c" stroke="#00101c"></path><path d="M256 0L216 0L217 47.7Z" fill="#007872" stroke="#007872"></path><path d="M217 47.7L94 93.7L231 150.4Z" fill="#007872" stroke="#007872"></path><path d="M711 600L801 511.3L698 542.3Z" fill="#02424f" stroke="#02424f"></path><path d="M69 336.9L185 343.9L147 286.1Z" fill="#061c29" stroke="#061c29"></path><path d="M802 95.7L749 0L722 78.7Z" fill="#00101c" stroke="#00101c"></path><path d="M0 229.1L69 336.9L117 250.1Z" fill="#007872" stroke="#007872"></path><path d="M117 250.1L69 336.9L147 286.1Z" fill="#008674" stroke="#008674"></path><path d="M69 336.9L91 433.6L185 343.9Z" fill="#008674" stroke="#008674"></path><path d="M816 175.4L900 165.4L802 95.7Z" fill="#007872" stroke="#007872"></path><path d="M900 333.9L819 268.1L801 332.9Z" fill="#053543" stroke="#053543"></path><path d="M900 333.9L801 332.9L837 410.6Z" fill="#006b6d" stroke="#006b6d"></path><path d="M82 600L185 600L155 523.3Z" fill="#005d65" stroke="#005d65"></path><path d="M155 523.3L185 600L239 600Z" fill="#006b6d" stroke="#006b6d"></path><path d="M900 441.6L900 333.9L837 410.6Z" fill="#006b6d" stroke="#006b6d"></path><path d="M101 0L94 93.7L217 47.7Z" fill="#004f5b" stroke="#004f5b"></path><path d="M900 279.1L900 165.4L819 268.1Z" fill="#02424f" stroke="#02424f"></path><path d="M802 95.7L846 0L749 0Z" fill="#00101c" stroke="#00101c"></path><path d="M94 93.7L55 156.4L212 204.4Z" fill="#00101c" stroke="#00101c"></path><path d="M801 511.3L900 441.6L837 410.6Z" fill="#008674" stroke="#008674"></path><path d="M900 511.3L900 441.6L801 511.3Z" fill="#006b6d" stroke="#006b6d"></path><path d="M0 430.6L76 497.3L91 433.6Z" fill="#053543" stroke="#053543"></path><path d="M91 433.6L76 497.3L155 523.3Z" fill="#004f5b" stroke="#004f5b"></path><path d="M0 376.9L91 433.6L69 336.9Z" fill="#062836" stroke="#062836"></path><path d="M900 165.4L900 88.7L802 95.7Z" fill="#00101c" stroke="#00101c"></path><path d="M900 88.7L846 0L802 95.7Z" fill="#007872" stroke="#007872"></path><path d="M711 600L836 600L801 511.3Z" fill="#005d65" stroke="#005d65"></path><path d="M216 0L101 0L217 47.7Z" fill="#02424f" stroke="#02424f"></path><path d="M0 123.7L0 184.4L55 156.4Z" fill="#061c29" stroke="#061c29"></path><path d="M836 600L900 511.3L801 511.3Z" fill="#062836" stroke="#062836"></path><path d="M0 184.4L0 229.1L55 156.4Z" fill="#053543" stroke="#053543"></path><path d="M55 156.4L0 229.1L117 250.1Z" fill="#006b6d" stroke="#006b6d"></path><path d="M0 229.1L0 376.9L69 336.9Z" fill="#02424f" stroke="#02424f"></path><path d="M0 123.7L55 156.4L94 93.7Z" fill="#006b6d" stroke="#006b6d"></path><path d="M0 376.9L0 430.6L91 433.6Z" fill="#009473" stroke="#009473"></path><path d="M76 497.3L82 600L155 523.3Z" fill="#062836" stroke="#062836"></path><path d="M0 529.3L82 600L76 497.3Z" fill="#02424f" stroke="#02424f"></path><path d="M0 0L0 123.7L94 93.7Z" fill="#005d65" stroke="#005d65"></path><path d="M900 88.7L900 0L846 0Z" fill="#061c29" stroke="#061c29"></path><path d="M836 600L900 600L900 511.3Z" fill="#007872" stroke="#007872"></path><path d="M0 430.6L0 529.3L76 497.3Z" fill="#053543" stroke="#053543"></path><path d="M101 0L0 0L94 93.7Z" fill="#053543" stroke="#053543"></path><path d="M0 529.3L0 600L82 600Z" fill="#008674" stroke="#008674"></path></g></svg>